<mxfile host="app.diagrams.net" modified="2023-10-11T19:20:07.978Z" agent="Mozilla/5.0 (Windows NT 10.0; Win64; x64) AppleWebKit/537.36 (KHTML, like Gecko) Chrome/116.0.0.0 Safari/537.36 OPR/102.0.0.0" etag="xI1YJy3of75AaY_MYVqd" version="22.0.4" type="device">
  <diagram id="mCyr1kptdM3YggUfpTlr" name="Page-1">
    <mxGraphModel dx="1330" dy="1906" grid="1" gridSize="10" guides="1" tooltips="1" connect="1" arrows="1" fold="1" page="1" pageScale="1" pageWidth="850" pageHeight="1100" math="0" shadow="0">
      <root>
        <mxCell id="0" />
        <mxCell id="1" parent="0" />
        <mxCell id="RMtQjLJvcsIaxz_irh20-2" value="User" style="swimlane;fontStyle=0;childLayout=stackLayout;horizontal=1;startSize=26;fillColor=none;horizontalStack=0;resizeParent=1;resizeParentMax=0;resizeLast=0;collapsible=1;marginBottom=0;" parent="1" vertex="1">
          <mxGeometry x="280" y="-970" width="140" height="130" as="geometry">
            <mxRectangle x="280" y="-970" width="70" height="30" as="alternateBounds" />
          </mxGeometry>
        </mxCell>
        <mxCell id="RMtQjLJvcsIaxz_irh20-3" value="name" style="text;strokeColor=none;fillColor=none;align=left;verticalAlign=top;spacingLeft=4;spacingRight=4;overflow=hidden;rotatable=0;points=[[0,0.5],[1,0.5]];portConstraint=eastwest;" parent="RMtQjLJvcsIaxz_irh20-2" vertex="1">
          <mxGeometry y="26" width="140" height="26" as="geometry" />
        </mxCell>
        <mxCell id="RMtQjLJvcsIaxz_irh20-4" value="email" style="text;strokeColor=none;fillColor=none;align=left;verticalAlign=top;spacingLeft=4;spacingRight=4;overflow=hidden;rotatable=0;points=[[0,0.5],[1,0.5]];portConstraint=eastwest;" parent="RMtQjLJvcsIaxz_irh20-2" vertex="1">
          <mxGeometry y="52" width="140" height="26" as="geometry" />
        </mxCell>
        <mxCell id="RMtQjLJvcsIaxz_irh20-5" value="age" style="text;strokeColor=none;fillColor=none;align=left;verticalAlign=top;spacingLeft=4;spacingRight=4;overflow=hidden;rotatable=0;points=[[0,0.5],[1,0.5]];portConstraint=eastwest;" parent="RMtQjLJvcsIaxz_irh20-2" vertex="1">
          <mxGeometry y="78" width="140" height="26" as="geometry" />
        </mxCell>
        <mxCell id="RMtQjLJvcsIaxz_irh20-6" value="role" style="text;strokeColor=none;fillColor=none;align=left;verticalAlign=top;spacingLeft=4;spacingRight=4;overflow=hidden;rotatable=0;points=[[0,0.5],[1,0.5]];portConstraint=eastwest;" parent="RMtQjLJvcsIaxz_irh20-2" vertex="1">
          <mxGeometry y="104" width="140" height="26" as="geometry" />
        </mxCell>
        <mxCell id="RMtQjLJvcsIaxz_irh20-8" value="annoyance" style="swimlane;fontStyle=0;childLayout=stackLayout;horizontal=1;startSize=26;fillColor=none;horizontalStack=0;resizeParent=1;resizeParentMax=0;resizeLast=0;collapsible=1;marginBottom=0;" parent="1" vertex="1">
          <mxGeometry x="575" y="-970" width="140" height="78" as="geometry">
            <mxRectangle x="520" y="-940" width="100" height="30" as="alternateBounds" />
          </mxGeometry>
        </mxCell>
        <mxCell id="RMtQjLJvcsIaxz_irh20-9" value="check time" style="text;strokeColor=none;fillColor=none;align=left;verticalAlign=top;spacingLeft=4;spacingRight=4;overflow=hidden;rotatable=0;points=[[0,0.5],[1,0.5]];portConstraint=eastwest;" parent="RMtQjLJvcsIaxz_irh20-8" vertex="1">
          <mxGeometry y="26" width="140" height="26" as="geometry" />
        </mxCell>
        <mxCell id="on-PZeMUi1xkSiczZd_k-5" value="annoyance level" style="text;strokeColor=none;fillColor=none;align=left;verticalAlign=top;spacingLeft=4;spacingRight=4;overflow=hidden;rotatable=0;points=[[0,0.5],[1,0.5]];portConstraint=eastwest;" vertex="1" parent="RMtQjLJvcsIaxz_irh20-8">
          <mxGeometry y="52" width="140" height="26" as="geometry" />
        </mxCell>
        <mxCell id="RMtQjLJvcsIaxz_irh20-15" value="Consumer" style="swimlane;fontStyle=0;childLayout=stackLayout;horizontal=1;startSize=26;fillColor=none;horizontalStack=0;resizeParent=1;resizeParentMax=0;resizeLast=0;collapsible=1;marginBottom=0;" parent="1" vertex="1">
          <mxGeometry x="280" y="-780" width="160" height="78" as="geometry" />
        </mxCell>
        <mxCell id="on-PZeMUi1xkSiczZd_k-28" value="previous annoyance level" style="text;strokeColor=none;fillColor=none;align=left;verticalAlign=top;spacingLeft=4;spacingRight=4;overflow=hidden;rotatable=0;points=[[0,0.5],[1,0.5]];portConstraint=eastwest;" vertex="1" parent="RMtQjLJvcsIaxz_irh20-15">
          <mxGeometry y="26" width="160" height="26" as="geometry" />
        </mxCell>
        <mxCell id="on-PZeMUi1xkSiczZd_k-29" value="previous tempreture level" style="text;strokeColor=none;fillColor=none;align=left;verticalAlign=top;spacingLeft=4;spacingRight=4;overflow=hidden;rotatable=0;points=[[0,0.5],[1,0.5]];portConstraint=eastwest;" vertex="1" parent="RMtQjLJvcsIaxz_irh20-15">
          <mxGeometry y="52" width="160" height="26" as="geometry" />
        </mxCell>
        <mxCell id="RMtQjLJvcsIaxz_irh20-18" value="" style="endArrow=none;html=1;startSize=12;startArrow=block;startFill=0;exitX=0.003;exitY=0.115;exitDx=0;exitDy=0;exitPerimeter=0;edgeStyle=orthogonalEdgeStyle;entryX=0;entryY=0.5;entryDx=0;entryDy=0;" parent="1" source="RMtQjLJvcsIaxz_irh20-4" target="RMtQjLJvcsIaxz_irh20-15" edge="1">
          <mxGeometry relative="1" as="geometry">
            <mxPoint x="200" y="-840" as="sourcePoint" />
            <mxPoint x="240" y="-680" as="targetPoint" />
            <Array as="points">
              <mxPoint x="240" y="-915" />
              <mxPoint x="240" y="-740" />
            </Array>
          </mxGeometry>
        </mxCell>
        <mxCell id="RMtQjLJvcsIaxz_irh20-26" value="" style="endArrow=none;html=1;startSize=12;startArrow=open;startFill=0;entryX=1;entryY=0.5;entryDx=0;entryDy=0;exitX=0;exitY=0.5;exitDx=0;exitDy=0;" parent="1" source="RMtQjLJvcsIaxz_irh20-9" target="RMtQjLJvcsIaxz_irh20-3" edge="1">
          <mxGeometry relative="1" as="geometry">
            <mxPoint x="460.4200000000001" y="-960" as="sourcePoint" />
            <mxPoint x="460" y="-758.99" as="targetPoint" />
          </mxGeometry>
        </mxCell>
        <mxCell id="RMtQjLJvcsIaxz_irh20-27" value="*" style="edgeLabel;resizable=0;html=1;align=left;verticalAlign=bottom;" parent="RMtQjLJvcsIaxz_irh20-26" connectable="0" vertex="1">
          <mxGeometry x="-1" relative="1" as="geometry">
            <mxPoint x="-12" y="31" as="offset" />
          </mxGeometry>
        </mxCell>
        <mxCell id="RMtQjLJvcsIaxz_irh20-28" value="1" style="edgeLabel;resizable=0;html=1;align=right;verticalAlign=bottom;" parent="RMtQjLJvcsIaxz_irh20-26" connectable="0" vertex="1">
          <mxGeometry x="1" relative="1" as="geometry">
            <mxPoint x="10" y="25" as="offset" />
          </mxGeometry>
        </mxCell>
        <mxCell id="RMtQjLJvcsIaxz_irh20-30" value="send" style="edgeLabel;html=1;align=center;verticalAlign=middle;resizable=0;points=[];" parent="RMtQjLJvcsIaxz_irh20-26" vertex="1" connectable="0">
          <mxGeometry x="0.1697" y="2" relative="1" as="geometry">
            <mxPoint y="-13" as="offset" />
          </mxGeometry>
        </mxCell>
        <mxCell id="on-PZeMUi1xkSiczZd_k-21" value="tempreture" style="swimlane;fontStyle=0;childLayout=stackLayout;horizontal=1;startSize=26;fillColor=none;horizontalStack=0;resizeParent=1;resizeParentMax=0;resizeLast=0;collapsible=1;marginBottom=0;" vertex="1" parent="1">
          <mxGeometry x="575" y="-790" width="140" height="78" as="geometry">
            <mxRectangle x="520" y="-940" width="100" height="30" as="alternateBounds" />
          </mxGeometry>
        </mxCell>
        <mxCell id="on-PZeMUi1xkSiczZd_k-22" value="check time" style="text;strokeColor=none;fillColor=none;align=left;verticalAlign=top;spacingLeft=4;spacingRight=4;overflow=hidden;rotatable=0;points=[[0,0.5],[1,0.5]];portConstraint=eastwest;" vertex="1" parent="on-PZeMUi1xkSiczZd_k-21">
          <mxGeometry y="26" width="140" height="26" as="geometry" />
        </mxCell>
        <mxCell id="on-PZeMUi1xkSiczZd_k-23" value="tempreture" style="text;strokeColor=none;fillColor=none;align=left;verticalAlign=top;spacingLeft=4;spacingRight=4;overflow=hidden;rotatable=0;points=[[0,0.5],[1,0.5]];portConstraint=eastwest;" vertex="1" parent="on-PZeMUi1xkSiczZd_k-21">
          <mxGeometry y="52" width="140" height="26" as="geometry" />
        </mxCell>
        <mxCell id="on-PZeMUi1xkSiczZd_k-36" value="send" style="edgeLabel;html=1;align=center;verticalAlign=middle;resizable=0;points=[];" vertex="1" connectable="0" parent="1">
          <mxGeometry x="510" y="-850" as="geometry" />
        </mxCell>
        <mxCell id="on-PZeMUi1xkSiczZd_k-38" value="" style="endArrow=none;html=1;startSize=12;startArrow=open;startFill=0;entryX=0.5;entryY=0;entryDx=0;entryDy=0;" edge="1" parent="1" source="on-PZeMUi1xkSiczZd_k-5" target="on-PZeMUi1xkSiczZd_k-21">
          <mxGeometry relative="1" as="geometry">
            <mxPoint x="585" y="-921" as="sourcePoint" />
            <mxPoint x="485" y="-921" as="targetPoint" />
          </mxGeometry>
        </mxCell>
        <mxCell id="on-PZeMUi1xkSiczZd_k-39" value="1" style="edgeLabel;resizable=0;html=1;align=left;verticalAlign=bottom;" connectable="0" vertex="1" parent="on-PZeMUi1xkSiczZd_k-38">
          <mxGeometry x="-1" relative="1" as="geometry">
            <mxPoint x="-15" y="35" as="offset" />
          </mxGeometry>
        </mxCell>
        <mxCell id="on-PZeMUi1xkSiczZd_k-40" value="1" style="edgeLabel;resizable=0;html=1;align=right;verticalAlign=bottom;" connectable="0" vertex="1" parent="on-PZeMUi1xkSiczZd_k-38">
          <mxGeometry x="1" relative="1" as="geometry">
            <mxPoint x="-6" y="-4" as="offset" />
          </mxGeometry>
        </mxCell>
        <mxCell id="on-PZeMUi1xkSiczZd_k-42" value="calculate" style="text;html=1;strokeColor=none;fillColor=none;align=center;verticalAlign=middle;whiteSpace=wrap;rounded=0;" vertex="1" parent="1">
          <mxGeometry x="645" y="-850" width="60" height="30" as="geometry" />
        </mxCell>
        <mxCell id="on-PZeMUi1xkSiczZd_k-46" value="" style="endArrow=none;html=1;startSize=12;startArrow=open;startFill=0;entryX=1;entryY=0.5;entryDx=0;entryDy=0;exitX=0;exitY=0.5;exitDx=0;exitDy=0;" edge="1" parent="1" source="on-PZeMUi1xkSiczZd_k-22" target="RMtQjLJvcsIaxz_irh20-4">
          <mxGeometry relative="1" as="geometry">
            <mxPoint x="600" y="-882" as="sourcePoint" />
            <mxPoint x="600" y="-780" as="targetPoint" />
          </mxGeometry>
        </mxCell>
        <mxCell id="on-PZeMUi1xkSiczZd_k-47" value="*" style="edgeLabel;resizable=0;html=1;align=left;verticalAlign=bottom;" connectable="0" vertex="1" parent="on-PZeMUi1xkSiczZd_k-46">
          <mxGeometry x="-1" relative="1" as="geometry">
            <mxPoint x="-15" y="21" as="offset" />
          </mxGeometry>
        </mxCell>
        <mxCell id="on-PZeMUi1xkSiczZd_k-48" value="1" style="edgeLabel;resizable=0;html=1;align=right;verticalAlign=bottom;" connectable="0" vertex="1" parent="on-PZeMUi1xkSiczZd_k-46">
          <mxGeometry x="1" relative="1" as="geometry">
            <mxPoint x="12" y="39" as="offset" />
          </mxGeometry>
        </mxCell>
        <mxCell id="on-PZeMUi1xkSiczZd_k-66" value="notification" style="swimlane;fontStyle=0;childLayout=stackLayout;horizontal=1;startSize=26;fillColor=none;horizontalStack=0;resizeParent=1;resizeParentMax=0;resizeLast=0;collapsible=1;marginBottom=0;" vertex="1" parent="1">
          <mxGeometry x="802" y="-880" width="140" height="78" as="geometry">
            <mxRectangle x="520" y="-940" width="100" height="30" as="alternateBounds" />
          </mxGeometry>
        </mxCell>
        <mxCell id="on-PZeMUi1xkSiczZd_k-67" value="type" style="text;strokeColor=none;fillColor=none;align=left;verticalAlign=top;spacingLeft=4;spacingRight=4;overflow=hidden;rotatable=0;points=[[0,0.5],[1,0.5]];portConstraint=eastwest;" vertex="1" parent="on-PZeMUi1xkSiczZd_k-66">
          <mxGeometry y="26" width="140" height="26" as="geometry" />
        </mxCell>
        <mxCell id="on-PZeMUi1xkSiczZd_k-68" value="text" style="text;strokeColor=none;fillColor=none;align=left;verticalAlign=top;spacingLeft=4;spacingRight=4;overflow=hidden;rotatable=0;points=[[0,0.5],[1,0.5]];portConstraint=eastwest;" vertex="1" parent="on-PZeMUi1xkSiczZd_k-66">
          <mxGeometry y="52" width="140" height="26" as="geometry" />
        </mxCell>
        <mxCell id="on-PZeMUi1xkSiczZd_k-71" value="" style="endArrow=none;html=1;startSize=12;startArrow=open;startFill=0;entryX=1;entryY=0.5;entryDx=0;entryDy=0;exitX=0;exitY=0.5;exitDx=0;exitDy=0;" edge="1" parent="1" source="on-PZeMUi1xkSiczZd_k-67" target="RMtQjLJvcsIaxz_irh20-9">
          <mxGeometry relative="1" as="geometry">
            <mxPoint x="875" y="-776" as="sourcePoint" />
            <mxPoint x="720" y="-930" as="targetPoint" />
          </mxGeometry>
        </mxCell>
        <mxCell id="on-PZeMUi1xkSiczZd_k-75" value="*" style="edgeLabel;resizable=0;html=1;align=left;verticalAlign=bottom;" connectable="0" vertex="1" parent="1">
          <mxGeometry x="770" y="-840" as="geometry" />
        </mxCell>
        <mxCell id="on-PZeMUi1xkSiczZd_k-76" value="" style="endArrow=none;html=1;startSize=12;startArrow=open;startFill=0;entryX=1;entryY=0.5;entryDx=0;entryDy=0;exitX=0;exitY=0.5;exitDx=0;exitDy=0;" edge="1" parent="1" source="on-PZeMUi1xkSiczZd_k-67" target="on-PZeMUi1xkSiczZd_k-22">
          <mxGeometry relative="1" as="geometry">
            <mxPoint x="812" y="-831" as="sourcePoint" />
            <mxPoint x="725" y="-921" as="targetPoint" />
          </mxGeometry>
        </mxCell>
        <mxCell id="on-PZeMUi1xkSiczZd_k-80" value="*" style="edgeLabel;resizable=0;html=1;align=left;verticalAlign=bottom;" connectable="0" vertex="1" parent="1">
          <mxGeometry x="780" y="-802" as="geometry" />
        </mxCell>
        <mxCell id="on-PZeMUi1xkSiczZd_k-81" value="1" style="edgeLabel;resizable=0;html=1;align=right;verticalAlign=bottom;" connectable="0" vertex="1" parent="1">
          <mxGeometry x="730" y="-730" as="geometry" />
        </mxCell>
        <mxCell id="on-PZeMUi1xkSiczZd_k-84" value="1" style="edgeLabel;resizable=0;html=1;align=right;verticalAlign=bottom;" connectable="0" vertex="1" parent="1">
          <mxGeometry x="730" y="-892" as="geometry" />
        </mxCell>
        <mxCell id="on-PZeMUi1xkSiczZd_k-85" value="send" style="edgeLabel;html=1;align=center;verticalAlign=middle;resizable=0;points=[];" vertex="1" connectable="0" parent="1">
          <mxGeometry x="760" y="-910" as="geometry" />
        </mxCell>
        <mxCell id="on-PZeMUi1xkSiczZd_k-86" value="send" style="edgeLabel;html=1;align=center;verticalAlign=middle;resizable=0;points=[];" vertex="1" connectable="0" parent="1">
          <mxGeometry x="740" y="-802" as="geometry" />
        </mxCell>
      </root>
    </mxGraphModel>
  </diagram>
</mxfile>
